<svg enable-background="new 0 0 512 512" height="512" id="Layer_1" viewBox="0 0 512 512" width="512"
     xmlns="http://www.w3.org/2000/svg">
	<g>
		<g>
			<path d="m436 512h-360c-8.284 0-15-6.716-15-15v-482c0-8.284 6.716-15 15-15h270l105 105v392c0 8.284-6.716 15-15 15z"
			      fill="#fff4f4"/>
		</g>
		<path d="m346 0h-90v512h180c8.284 0 15-6.716 15-15v-392z" fill="#f6efea"/>
		<path clip-rule="evenodd" d="m346 0v90c0 8.284 6.716 15 15 15h90z" fill="#eee1dc" fill-rule="evenodd"/>
		<path clip-rule="evenodd" d="m451 105-105-105h90c8.284 0 15 6.716 15 15z" fill="#bebcdd" fill-rule="evenodd"/>
		<g>
			<path d="m230.882 401.504c-1.528 0-3.082-.235-4.615-.73-7.883-2.547-12.208-11.002-9.661-18.886l54.162-167.618c2.547-7.882 11.003-12.207 18.886-9.661 7.883 2.547 12.208 11.002 9.661 18.886l-54.162 167.618c-2.052 6.349-7.939 10.391-14.271 10.391z"
			      fill="#4793ff"/>
		</g>
		<g>
			<path d="m190.033 366.72c-3.405 0-6.828-1.153-9.64-3.515l-54-45.36c-3.394-2.85-5.353-7.054-5.353-11.485s1.959-8.636 5.353-11.485l54-45.36c6.342-5.329 15.805-4.506 21.133 1.837s4.506 15.805-1.838 21.133l-40.326 33.875 40.326 33.875c6.344 5.328 7.166 14.79 1.838 21.133-2.967 3.531-7.216 5.352-11.493 5.352z"
			      fill="#4793ff"/>
		</g>
		<g>
			<path d="m322.049 366.72c-4.278 0-8.526-1.82-11.493-5.353-5.328-6.343-4.506-15.805 1.838-21.133l40.326-33.875-40.326-33.875c-6.344-5.328-7.166-14.79-1.838-21.133 5.329-6.344 14.79-7.166 21.133-1.837l54 45.36c3.394 2.85 5.353 7.054 5.353 11.485s-1.959 8.636-5.353 11.485l-54 45.36c-2.811 2.363-6.235 3.516-9.64 3.516z"
			      fill="#525cdd"/>
		</g>
		<path d="m289.653 204.609c-7.883-2.546-16.339 1.779-18.886 9.661l-14.767 45.702v97.57l43.314-134.047c2.547-7.884-1.778-16.339-9.661-18.886z"
		      fill="#525cdd"/>
	</g>
</svg>
