<svg enable-background="new 0 0 512 512" height="512" id="Layer_1" viewBox="0 0 512 512" width="512"
     xmlns="http://www.w3.org/2000/svg">
	<g>
		<g>
			<g>
				<path d="m362 445h-330c-8.284 0-15-6.716-15-15v-415c0-8.284 6.716-15 15-15h240.001l104.999 105v325c0 8.284-6.716 15-15 15z"
				      fill="#fff4f4"/>
			</g>
		</g>
		<path d="m272.001 0h-75.001v445h165c8.284 0 15-6.716 15-15v-325z" fill="#f6efea"/>
		<path clip-rule="evenodd" d="m272.001 0v90c0 8.284 6.716 15 15 15h90z" fill="#eee1dc" fill-rule="evenodd"/>
		<g>
			<path d="m272.001 0h89.999c8.284 0 15 6.716 15 15v90z" fill="#bebcdd"/>
		</g>
		<g>
			<path d="m211.534 90.001h-120c-8.284 0-15-6.716-15-15s6.716-15 15-15h120c8.284 0 15 6.716 15 15s-6.716 15-15 15z"
			      fill="#4793ff"/>
		</g>
		<g>
			<path d="m211.534 150.002h-120c-8.284 0-15-6.716-15-15s6.716-15 15-15h120c8.284 0 15 6.716 15 15s-6.716 15-15 15z"
			      fill="#4793ff"/>
		</g>
		<g>
			<path d="m301.534 210.001h-210c-8.284 0-15-6.716-15-15s6.716-15 15-15h210c8.284 0 15 6.716 15 15s-6.716 15-15 15z"
			      fill="#4793ff"/>
		</g>
		<g>
			<path d="m219.876 270.002h-128.342c-8.284 0-15-6.716-15-15s6.716-15 15-15h128.342c8.284 0 15 6.716 15 15s-6.716 15-15 15z"
			      fill="#4793ff"/>
		</g>
		<g>
			<path d="m211.534 330.001h-120c-8.284 0-15-6.716-15-15s6.716-15 15-15h120c8.284 0 15 6.716 15 15s-6.716 15-15 15z"
			      fill="#4793ff"/>
		</g>
		<g>
			<path d="m429 381h-104c-8.284 0-15-6.716-15-15v-59c0-36.944 30.056-67 67-67s67 30.056 67 67v59c0 8.284-6.716 15-15 15zm-89-30h74v-44c0-20.402-16.598-37-37-37s-37 16.598-37 37z"
			      fill="#00607f"/>
		</g>
		<path d="m377 240v30c20.402 0 37 16.598 37 37v44h-37v30h52c8.284 0 15-6.716 15-15v-59c0-36.944-30.056-67-67-67z"
		      fill="#002c3c"/>
		<g>
			<path d="m399 512h-44c-52.935 0-96-43.065-96-96v-81c0-8.284 6.716-15 15-15h206c8.284 0 15 6.716 15 15v81c0 52.935-43.066 96-96 96z"
			      fill="#fdbf00"/>
		</g>
		<path d="m480 320h-103v192h22c52.935 0 96-43.065 96-96v-81c0-8.284-6.716-15-15-15z" fill="#ff8856"/>
		<g>
			<path d="m377 445c-8.284 0-15-6.716-15-15v-27c0-8.284 6.716-15 15-15s15 6.716 15 15v27c0 8.284-6.716 15-15 15z"
			      fill="#00607f"/>
		</g>
		<g fill="#525cdd">
			<path d="m211.534 60.001h-14.534v30h14.534c8.284 0 15-6.716 15-15s-6.716-15-15-15z"/>
			<path d="m211.534 120.002h-14.534v30h14.534c8.284 0 15-6.716 15-15s-6.716-15-15-15z"/>
			<path d="m301.534 180.001h-104.534v30h104.534c8.284 0 15-6.716 15-15s-6.716-15-15-15z"/>
			<path d="m219.876 240.002h-22.876v30h22.875c8.284 0 15-6.716 15-15s-6.715-15-14.999-15z"/>
			<path d="m211.534 300.001h-14.534v30h14.534c8.284 0 15-6.716 15-15s-6.716-15-15-15z"/>
		</g>
		<path d="m377 388v57c8.284 0 15-6.716 15-15v-27c0-8.284-6.716-15-15-15z" fill="#002c3c"/>
	</g>
</svg>
