<svg enable-background="new 0 0 512 512" height="512" id="Layer_1" viewBox="0 0 512 512" width="512"
     xmlns="http://www.w3.org/2000/svg">
	<g>
		<g>
			<g>
				<path d="m436 439h-360c-8.284 0-15-6.716-15-15v-409c0-8.284 6.716-15 15-15h270l105 105v319c0 8.284-6.716 15-15 15z"
				      fill="#fff4f4"/>
			</g>
		</g>
		<path d="m346 0h-89.959v439h179.959c8.284 0 15-6.716 15-15v-319z" fill="#f6efea"/>
		<g>
			<path clip-rule="evenodd" d="m346 0v90c0 8.284 6.716 15 15 15h90z" fill="#eee1dc" fill-rule="evenodd"/>
		</g>
		<g>
			<path clip-rule="evenodd" d="m451 105-105-105h90c8.284 0 15 6.716 15 15z" fill="#bebcdd"
			      fill-rule="evenodd"/>
		</g>
		<g>
			<path d="m286.04 90.001h-149.999c-8.284 0-15-6.716-15-15s6.716-15 15-15h149.999c8.284 0 15 6.716 15 15s-6.716 15-15 15z"
			      fill="#4793ff"/>
		</g>
		<g>
			<path d="m286.04 150.002h-149.999c-8.284 0-15-6.716-15-15s6.716-15 15-15h149.999c8.284 0 15 6.716 15 15s-6.716 15-15 15z"
			      fill="#4793ff"/>
		</g>
		<g>
			<path d="m376.041 210.002h-240c-8.284 0-15-6.716-15-15s6.716-15 15-15h240c8.284 0 15 6.716 15 15s-6.716 15-15 15z"
			      fill="#4793ff"/>
		</g>
		<g>
			<path d="m376.041 270.002h-240c-8.284 0-15-6.716-15-15s6.716-15 15-15h240c8.284 0 15 6.716 15 15s-6.716 15-15 15z"
			      fill="#4793ff"/>
		</g>
		<g>
			<path d="m497 512h-482c-8.284 0-15-6.716-15-15v-173c0-8.284 6.716-15 15-15h135c8.284 0 15 6.716 15 15v17.068c0 14.888 12.112 27 27 27h128c14.888 0 27-12.112 27-27v-17.068c0-8.284 6.716-15 15-15h135c8.284 0 15 6.716 15 15v173c0 8.284-6.716 15-15 15z"
			      fill="#fdbf00"/>
		</g>
		<path d="m497 309h-135c-8.284 0-15 6.716-15 15v17.068c0 14.888-12.112 27-27 27h-63.959v143.932h240.959c8.284 0 15-6.716 15-15v-173c0-8.284-6.716-15-15-15z"
		      fill="#ff8856"/>
		<g fill="#525cdd">
			<path d="m376.041 240.002h-120v30h120c8.284 0 15-6.716 15-15s-6.716-15-15-15z"/>
			<path d="m376.041 180.002h-120v30h120c8.284 0 15-6.716 15-15s-6.716-15-15-15z"/>
			<path d="m286.04 120.002h-29.999v30h29.999c8.284 0 15-6.716 15-15s-6.716-15-15-15z"/>
			<path d="m286.04 60.001h-29.999v30h29.999c8.284 0 15-6.716 15-15s-6.716-15-15-15z"/>
		</g>
	</g>
</svg>
