<svg enable-background="new 0 0 512 512" height="512" id="Layer_1" viewBox="0 0 512 512" width="512"
     xmlns="http://www.w3.org/2000/svg">
	<g>
		<g>
			<path d="m436 512h-360c-8.284 0-15-6.716-15-15v-482c0-8.284 6.716-15 15-15h270l105 105v392c0 8.284-6.716 15-15 15z"
			      fill="#fff4f4"/>
		</g>
		<path d="m346 0h-90v512h180c8.284 0 15-6.716 15-15v-392z" fill="#f6efea"/>
		<path clip-rule="evenodd" d="m346 0v90c0 8.284 6.716 15 15 15h90z" fill="#eee1dc" fill-rule="evenodd"/>
		<path clip-rule="evenodd" d="m451 105-105-105h90c8.284 0 15 6.716 15 15z" fill="#bebcdd" fill-rule="evenodd"/>
		<g>
			<path d="m256.001 449.485c-3.179 0-6.358-.921-9.12-2.762l-113.858-75.905c-4.574-3.05-7.321-8.183-7.321-13.68v-127.14c0-9.08 7.361-16.441 16.441-16.441l227.715-.002c4.361 0 8.543 1.732 11.625 4.816 3.084 3.083 4.816 7.265 4.816 11.625v127.143c0 5.497-2.748 10.631-7.321 13.68l-113.858 75.905c-2.76 1.841-5.94 2.761-9.119 2.761z"
			      fill="#00607f"/>
		</g>
		<path d="m381.483 218.371c-3.083-3.083-7.265-4.816-11.625-4.816l-113.857.001v235.929c3.179 0 6.359-.921 9.12-2.762l113.857-75.905c4.574-3.05 7.321-8.183 7.321-13.68v-127.141c0-4.361-1.732-8.543-4.816-11.626z"
		      fill="#002c3c"/>
		<g>
			<path d="m256.001 322.345c-3.179 0-6.358-.921-9.12-2.761l-113.858-75.906c-4.574-3.049-7.321-8.183-7.321-13.68s2.748-10.631 7.321-13.68l113.858-75.905c5.523-3.681 12.716-3.681 18.239 0l113.857 75.905c4.574 3.05 7.321 8.183 7.321 13.68s-2.748 10.631-7.321 13.68l-113.857 75.905c-2.76 1.841-5.94 2.762-9.119 2.762z"
			      fill="#007a9f"/>
		</g>
		<path d="m378.977 216.318-113.857-75.905c-2.762-1.841-5.941-2.761-9.12-2.761v184.692c3.179 0 6.359-.921 9.12-2.762l113.857-75.905c4.574-3.049 7.322-8.183 7.322-13.68s-2.748-10.629-7.322-13.679z"
		      fill="#00607f"/>
	</g>
</svg>
