<svg enable-background="new 0 0 512 512" height="512" id="Layer_1" viewBox="0 0 512 512" width="512"
     xmlns="http://www.w3.org/2000/svg">
	<g>
		<path d="m463.803 346.341v-138.541c0-114.581-93.213-207.8-207.803-207.8s-207.803 93.219-207.803 207.8v138.541c-31.129 33.346-48.197 76.573-48.197 122.422v28.237c0 8.284 6.715 15 14.999 15h482.002c8.284 0 14.999-6.716 14.999-15v-28.237c0-45.849-17.068-89.076-48.197-122.422z"
		      fill="#ffe88c"/>
		<path d="m512 497v-28.237c0-45.849-17.068-89.076-48.197-122.422v-138.541c0-114.581-93.213-207.8-207.803-207.8v512h241.001c8.284 0 14.999-6.716 14.999-15z"
		      fill="#ffbf6e"/>
		<path d="m223.867 273.134h-32.149c-27.094 0-49.25-22.036-49.25-49.268 0-8.284-6.716-15-15-15s-15 6.716-15 15v96.4c0 26.031 21.103 47.134 47.134 47.134h64.266c8.284 0 15-6.716 15-15v-64.267c-.001-8.284-6.717-14.999-15.001-14.999z"
		      fill="#163230"/>
		<path d="m288.133 273.134h32.149c27.094 0 49.25-22.036 49.25-49.268 0-8.284 6.716-15 15-15s15 6.716 15 15v96.4c0 26.031-21.103 47.134-47.134 47.134h-64.266c-8.284 0-15-6.716-15-15v-64.267c.001-8.284 6.717-14.999 15.001-14.999z"
		      fill="#010"/>
		<path d="m288.133 367.4h-64.267c-8.284 0-15-6.716-15-15v-64.267c0-8.284 6.716-15 15-15h64.267c8.284 0 15 6.716 15 15v64.267c0 8.285-6.716 15-15 15z"
		      fill="#f7a996"/>
		<path d="m303.133 352.4v-64.267c0-8.284-6.716-15-15-15h-32.133v94.267h32.133c8.284 0 15-6.715 15-15z"
		      fill="#e67e74"/>
		<path d="m320.267 303.134h-128.534c-43.708 0-79.267-35.56-79.267-79.268 0-70.391 56.951-127.466 127.466-127.466h32.134c70.396 0 127.466 56.951 127.466 127.466.001 43.708-35.558 79.268-79.265 79.268z"
		      fill="#ffd1b9"/>
		<path d="m399.533 223.866c0-70.515-57.07-127.466-127.466-127.466h-16.067v206.733h64.267c43.707.001 79.266-35.559 79.266-79.267z"
		      fill="#f7a996"/>
		<path d="m256 238.866c-12.053 0-23.85-3.95-33.219-11.123-6.578-5.036-7.828-14.451-2.792-21.028 5.036-6.579 14.45-7.828 21.029-2.792 4.164 3.188 9.484 4.943 14.981 4.943s10.818-1.756 14.981-4.943c6.58-5.036 15.994-3.785 21.029 2.792 5.036 6.577 3.786 15.992-2.792 21.028-9.367 7.173-21.164 11.123-33.217 11.123z"
		      fill="#f7a996"/>
		<path d="m292.01 206.715c-5.035-6.577-14.449-7.828-21.029-2.792-4.164 3.188-9.484 4.943-14.981 4.943v30c12.053 0 23.85-3.95 33.219-11.123 6.577-5.036 7.827-14.451 2.791-21.028z"
		      fill="#e67e74"/>
	</g>
</svg>
