<?xml version="1.0" encoding="iso-8859-1"?>
<!-- Generator: Adobe Illustrator 19.0.0, SVG Export Plug-In . SVG Version: 6.00 Build 0)  -->
<svg id="Capa_1" style="enable-background:new 0 0 456.533 456.533;" version="1.1" viewBox="0 0 456.533 456.533" x="0px"
     xml:space="preserve" xmlns="http://www.w3.org/2000/svg" y="0px">
<path d="M455.822,41.244v374.044c0,22.756-18.489,41.244-41.244,41.244H41.956
	C19.2,455.111,0.711,436.622,0.711,413.867V41.244C0.711,18.489,19.2,0,41.956,0H416C437.333,0,455.822,18.489,455.822,41.244z"
      style="fill:#E24C4B;"/>
	<rect height="369.778" id="SVGCleanerId_0" style="fill:#FFFFFF;" width="369.778" x="43.378" y="42.667"/>
	<g>
	<rect height="369.778" id="SVGCleanerId_0_1_" style="fill:#FFFFFF;" width="369.778" x="43.378" y="42.667"/>
</g>
	<g>
	<path d="M279.467,157.867H249.6v216.178h-42.667V157.867h-29.867c-4.267,0-8.533-5.689-4.267-9.956
		L224,82.489c2.844-2.844,7.111-2.844,9.956,0l51.2,65.422C288,152.178,285.156,157.867,279.467,157.867z"
	      style="fill:#3F4448;"/>
		<rect height="31.289" style="fill:#3F4448;" width="15.644" x="356.267" y="355.556"/>
		<rect height="31.289" style="fill:#3F4448;" width="15.644" x="356.267" y="307.2"/>
		<rect height="31.289" style="fill:#3F4448;" width="15.644" x="356.267" y="260.267"/>
		<rect height="31.289" style="fill:#3F4448;" width="15.644" x="356.267" y="211.911"/>
		<rect height="31.289" style="fill:#3F4448;" width="15.644" x="356.267" y="164.978"/>
		<rect height="31.289" style="fill:#3F4448;" width="15.644" x="86.044" y="355.556"/>
		<rect height="31.289" style="fill:#3F4448;" width="15.644" x="86.044" y="307.2"/>
		<rect height="31.289" style="fill:#3F4448;" width="15.644" x="86.044" y="260.267"/>
		<rect height="31.289" style="fill:#3F4448;" width="15.644" x="86.044" y="211.911"/>
		<rect height="31.289" style="fill:#3F4448;" width="15.644" x="86.044" y="164.978"/>
</g>
	<g>
</g>
	<g>
</g>
	<g>
</g>
	<g>
</g>
	<g>
</g>
	<g>
</g>
	<g>
</g>
	<g>
</g>
	<g>
</g>
	<g>
</g>
	<g>
</g>
	<g>
</g>
	<g>
</g>
	<g>
</g>
	<g>
</g>
</svg>
