<?xml version="1.0" encoding="iso-8859-1"?>
<!-- Generator: Adobe Illustrator 19.0.0, SVG Export Plug-In . SVG Version: 6.00 Build 0)  -->
<svg id="Capa_1" style="enable-background:new 0 0 455.111 455.111;" version="1.1" viewBox="0 0 455.111 455.111" x="0px"
     xml:space="preserve" xmlns="http://www.w3.org/2000/svg" y="0px">
<path d="M455.111,227.556C455.111,102.4,352.711,0,227.556,0S0,102.4,0,227.556
	s102.4,227.556,227.556,227.556S455.111,352.711,455.111,227.556z" style="fill:#E24C4B;"/>
	<path d="M227.556,412.444c-102.4,0-184.889-82.489-184.889-184.889S125.156,42.667,227.556,42.667
	s184.889,82.489,184.889,184.889S329.956,412.444,227.556,412.444z" style="fill:#FFFFFF;"/>
	<g>
	<path d="M310.044,356.978c-8.533,0-14.222-5.689-14.222-14.222V169.244c0-12.8-9.956-22.756-22.756-22.756
		s-22.756,9.956-22.756,22.756V320c0,8.533-5.689,14.222-14.222,14.222s-14.222-5.689-14.222-14.222V169.244
		c0-28.444,22.756-51.2,51.2-51.2s51.2,22.756,51.2,51.2v173.511C324.267,351.289,317.156,356.978,310.044,356.978z"
	      style="fill:#3F4448;"/>
		<polygon points="199.111,298.667 236.089,369.778 273.067,298.667 	" style="fill:#3F4448;"/>
		<polygon points="183.467,93.867 112.356,132.267 183.467,169.244 	" style="fill:#3F4448;"/>
		<rect height="28.444" style="fill:#3F4448;" width="110.933" x="162.133" y="118.044"/>
</g>
	<polygon points="92.444,392.533 62.578,362.667 362.667,62.578 392.533,92.444 " style="fill:#E24C4B;"/>
	<g>
</g>
	<g>
</g>
	<g>
</g>
	<g>
</g>
	<g>
</g>
	<g>
</g>
	<g>
</g>
	<g>
</g>
	<g>
</g>
	<g>
</g>
	<g>
</g>
	<g>
</g>
	<g>
</g>
	<g>
</g>
	<g>
</g>
</svg>
